<svg width="72" height="70" viewBox="0 0 72 70" fill="none" xmlns="http://www.w3.org/2000/svg">
<path d="M21.4089 0H15.6836L39.4333 34.8378C40.6723 36.6629 42.3369 38.1577 44.2829 39.1928C46.229 40.2278 48.3977 40.7718 50.6011 40.7776H56.3264L32.5669 5.9398C31.3313 4.11368 29.6688 2.61785 27.724 1.58258C25.7792 0.547311 23.6113 0.00400779 21.4089 0Z" fill="black"/>
<path d="M56.3361 0H50.2695C49.2848 0.000566176 48.3189 0.270118 47.4759 0.779664C46.6328 1.28921 45.9445 2.01943 45.485 2.89171C45.0255 3.764 44.8122 4.7453 44.8681 5.72997C44.924 6.71464 45.247 7.6654 45.8024 8.47986L56.3361 23.9351V0Z" fill="black"/>
<path d="M15.6641 40.7775H21.7502C22.7349 40.777 23.7008 40.5074 24.5438 39.9979C25.3869 39.4883 26.0752 38.7581 26.5347 37.8858C26.9942 37.0135 27.2075 36.0322 27.1516 35.0475C27.0957 34.0629 26.7726 33.1121 26.2173 32.2977L15.6641 16.8131V40.7775Z" fill="black"/>
<path d="M0 58.3039H2.85777L7.26635 65.1425H7.34438V58.3039H10.2021V69.8416H7.34438L2.9358 63.003H2.85777V69.8416H0V58.3039Z" fill="black"/>
<path d="M20.5396 64.0678C20.5241 62.8767 20.8625 61.7079 21.5117 60.7099C22.1609 59.7118 23.0916 58.9296 24.1857 58.4626C25.2797 57.9955 26.4877 57.8648 27.656 58.0869C28.8244 58.309 29.9006 58.874 30.7477 59.7101C31.5947 60.5462 32.1746 61.6156 32.4135 62.7825C32.6525 63.9494 32.5397 65.1611 32.0896 66.2637C31.6395 67.3663 30.8723 68.31 29.8856 68.9749C28.8988 69.6398 27.737 69.9959 26.5477 69.9979C25.7604 70.019 24.9769 69.8807 24.2443 69.5913C23.5116 69.3018 22.8448 68.8672 22.2838 68.3135C21.7228 67.7598 21.2791 67.0984 20.9794 66.3689C20.6797 65.6393 20.5301 64.8567 20.5396 64.0678ZM26.5477 67.2918C27.1897 67.321 27.8258 67.1571 28.374 66.8211C28.9222 66.4851 29.3574 65.9924 29.6236 65.4065C29.8898 64.8206 29.9748 64.1683 29.8676 63.5335C29.7604 62.8988 29.466 62.3108 29.0223 61.8452C28.5785 61.3795 28.0057 61.0576 27.3777 60.9208C26.7497 60.7841 26.0952 60.8388 25.4985 61.0779C24.9018 61.317 24.3902 61.7296 24.0297 62.2625C23.6691 62.7953 23.476 63.4241 23.4754 64.0678C23.4468 64.4862 23.5056 64.9059 23.6479 65.3002C23.7903 65.6945 24.0131 66.0548 24.3021 66.3581C24.5912 66.6614 24.9401 66.9011 25.3268 67.0618C25.7134 67.2226 26.1292 67.3009 26.5477 67.2918Z" fill="black"/>
<path d="M42.8847 58.3039H47.2153C49.7317 58.3039 51.4678 59.8474 51.4678 62.3484C51.4881 62.9032 51.3902 63.4559 51.1805 63.9697C50.9709 64.4836 50.6544 64.9468 50.252 65.3286C49.8497 65.7103 49.3707 66.0018 48.8471 66.1837C48.3235 66.3655 47.7672 66.4335 47.2153 66.3832H45.723V69.8416H42.8652L42.8847 58.3039ZM46.9617 63.765C47.8493 63.765 48.5808 63.4817 48.5808 62.3484C48.5808 61.2152 47.8493 60.9221 46.9617 60.9221H45.723V63.765H46.9617Z" fill="black"/>
<path d="M64.9186 65.504L60.6855 58.3039H63.9139L66.3523 62.8174L68.7712 58.3039H71.9996L67.7666 65.504V69.8416H64.9186V65.504Z" fill="black"/>
</svg>
